<?xml version="1.0" encoding="UTF-8" standalone="no"?>
<svg width="196px" height="54px" viewBox="0 0 196 54" version="1.1" xmlns="http://www.w3.org/2000/svg" xmlns:xlink="http://www.w3.org/1999/xlink">
    <!-- Generator: sketchtool 40.2 (33826) - http://www.bohemiancoding.com/sketch -->
    <title>46C0E0DB-FEC7-4F48-B05F-00826376AA14</title>
    <desc>Created with sketchtool.</desc>
    <defs/>
    <g id="Symbols" stroke="none" stroke-width="1" fill="none" fill-rule="evenodd">
        <g id="navbar" transform="translate(-216.000000, -19.000000)" fill="#A61493">
            <g id="Group-2" transform="translate(216.000000, 19.000000)">
                <path d="M44.7985075,40.2231062 C43.5331597,36.2097297 42.281118,32.1925514 41.0271754,28.1760068 C39.1598845,22.1964939 37.281822,16.2207829 35.4449451,10.2323993 C35.2453534,9.58103351 34.9608561,9.3801746 34.3037877,9.41058857 C33.1043368,9.46634751 31.899817,9.45557589 30.6990988,9.42009293 C30.2143762,9.40551957 30.0071811,9.55949028 29.8677837,10.0233033 C29.1543227,12.3962264 28.396508,14.756477 27.6748099,17.1274993 C27.5506195,17.5342861 27.3738384,17.7028302 26.9239651,17.7015629 C26.4823289,17.7009293 26.3448324,17.5133765 26.2288792,17.1351028 C25.4932413,14.7285976 24.7271895,12.3315967 23.9902844,9.92572515 C23.8781329,9.55949028 23.727964,9.41122219 23.3199099,9.42136018 C22.0228809,9.45177415 20.723951,9.46571388 19.4281892,9.41692481 C18.8604618,9.39601521 18.6570684,9.60130949 18.4961279,10.1202478 C15.4610673,19.9027739 12.4266404,29.6865672 9.32251478,39.44755 C8.98099127,40.5221769 9.0963109,41.1988876 9.96374261,41.8717967 C10.3439172,42.1670656 10.6657984,42.3634892 11.1650943,42.3590538 C13.7984371,42.3349761 16.4317798,42.3299071 19.0644889,42.3628555 C19.5916643,42.3698254 19.7836525,42.1892425 19.9224162,41.7146578 C20.4109406,40.0501267 20.9647282,38.4046043 21.4437482,36.7375387 C21.5863137,36.2414109 21.8378626,36.1387637 22.2978738,36.1476345 C22.7350746,36.1558716 23.019572,36.1869192 23.1684737,36.7102929 C23.6430583,38.3786257 24.2139538,40.0190791 24.6904393,41.6867784 C24.8475781,42.235497 25.1048296,42.385666 25.6446776,42.360321 C26.5963813,42.3159673 27.5525204,42.3299071 28.506125,42.3565193 C28.8818643,42.3672909 29.0282315,42.2342298 29.1340467,41.881301 C29.6491833,40.1648127 30.2099409,38.4616305 30.7206421,36.7445086 C30.8505351,36.3098423 31.0273162,36.1121515 31.5082371,36.1470008 C31.9416362,36.1774148 32.2806252,36.1451 32.4409321,36.7115601 C32.9123486,38.379893 33.4781752,40.0222473 33.964165,41.687412 C34.109265,42.1860743 34.3063222,42.3850324 34.8588426,42.3641228 C36.1736131,42.3140665 37.4915517,42.3476485 38.808223,42.3476485 C39.78147,42.3476485 40.7635877,42.2633765 41.7254295,42.3691918 C42.9413545,42.5028865 43.8404675,42.1290482 44.5887778,41.172909 C44.8479302,40.8421571 44.9201633,40.6077161 44.7985075,40.2231062 L44.7985075,40.2231062 Z M54,27 C54,41.911715 41.911715,54 27,54 C12.088285,54 0,41.911715 0,27 C0,12.088285 12.088285,-3.55271368e-15 27,-3.55271368e-15 C32.7995635,-3.55271368e-15 38.1714306,1.82927344 42.5713179,4.94100253 C40.9378344,6.12841453 39.8752464,8.05336525 39.8752464,10.2273303 C39.8752464,13.8351873 42.8000563,16.7599972 46.4079133,16.7599972 C48.2416221,16.7599972 49.8979161,16.0028161 51.0846945,14.7862574 C52.9481836,18.453675 54,22.6039144 54,27 L54,27 Z M49.3504647,10.9921149 L47.1726978,10.9921149 L47.1726978,13.1698817 L45.6424951,13.1698817 L45.6424951,10.9921149 L43.4653619,10.9921149 L43.4653619,9.46191214 L45.6424951,9.46191214 L45.6424951,7.28477894 L47.1726978,7.28477894 L47.1726978,9.46191214 L49.3504647,9.46191214 L49.3504647,10.9921149 Z" id="Fill-1"/>
                <path d="M107.4496,26.4434 C108.2126,26.5134 108.7496,26.2974 108.9716,25.4614 C109.2566,24.3894 109.7086,23.3564 109.9356,22.2754 C110.0406,21.7744 110.9326,20.9374 109.6716,20.6764 C108.7876,20.4934 107.9536,20.5724 107.6546,21.7204 C107.3436,22.9124 106.9706,24.0924 106.5536,25.2514 C106.2176,26.1844 106.5286,26.5184 107.4496,26.4434 M108.1286,42.8274 C104.1076,42.9894 103.3626,42.6214 104.8456,38.5194 C105.5386,36.6034 106.1166,34.6434 106.6766,32.6844 C106.8266,32.1574 107.6046,31.3444 106.4016,31.0674 C105.5116,30.8614 104.7226,30.9704 104.3926,32.1074 C103.6876,34.5394 102.8806,36.9424 102.1346,39.3634 C101.0766,42.7994 101.0496,42.8274 97.5366,42.8274 C94.8776,42.8274 92.2176,42.8464 89.5586,42.8214 C87.5986,42.8024 87.0626,42.0364 87.6316,40.1434 C88.1656,38.3674 88.7466,36.6054 89.2386,34.8184 C89.5066,33.8494 89.9566,33.4614 91.0426,33.4624 C95.1876,33.4664 95.1986,33.4214 96.4616,29.4554 C97.6246,25.8054 98.8116,22.1624 99.8876,18.4874 C100.4226,16.6624 101.4336,15.9144 103.3726,15.9564 C108.1326,16.0604 112.8956,15.9804 117.6576,15.9944 C119.9676,16.0014 120.5056,16.7674 119.8126,18.9704 C117.7376,25.5714 115.6256,32.1624 113.6016,38.7794 C112.1446,43.5384 111.9036,42.8184 108.1286,42.8274 Z M139.6206,42.8258 C135.9156,42.8278 135.9236,42.8248 134.6876,39.1958 C134.4996,38.6438 134.5056,37.8418 133.7046,37.7898 C132.7386,37.7268 132.8146,38.6608 132.5696,39.2348 C132.3286,39.8008 132.1656,40.4048 132.0166,41.0038 C131.7316,42.1528 131.3776,42.9208 129.8396,42.9028 C128.3416,42.8848 127.9006,42.2328 127.6656,41.0168 C127.5716,40.5358 127.3916,40.0638 127.1996,39.6098 C126.9076,38.9218 127.0536,37.7648 125.9736,37.8108 C124.9376,37.8548 125.0546,39.0018 124.8196,39.7028 C123.5206,43.5748 124.3676,42.7218 120.6006,42.8228 C119.4876,42.8528 118.3706,42.8628 117.2576,42.8188 C115.6646,42.7548 115.0666,41.9378 115.5346,40.4318 C117.9186,32.7518 120.3716,25.0928 122.6786,17.3898 C123.1786,15.7198 124.2856,16.0678 125.4156,15.9758 C126.6216,15.8768 127.3966,16.1568 127.6946,17.4958 C128.0156,18.9398 128.5286,20.3428 129.0036,21.7478 C129.1486,22.1758 129.1946,22.8088 129.8956,22.7388 C130.4316,22.6848 130.5286,22.1808 130.6566,21.7858 C131.1516,20.2558 131.6866,18.7318 132.0666,17.1708 C132.4396,15.6408 133.5846,16.0278 134.5746,15.9968 C135.5486,15.9678 136.4766,15.8158 136.8946,17.1858 C139.2726,24.9958 141.7226,32.7848 144.1826,40.5698 C144.6696,42.1118 143.7816,42.6208 142.5886,42.7958 C141.6186,42.9368 140.6116,42.8238 139.6206,42.8258 Z M157.0153,42.8279 C154.5403,42.8279 152.0623,42.7549 149.5923,42.8539 C148.0283,42.9169 147.1273,42.2439 146.6873,40.8459 C144.3113,33.2989 141.9593,25.7439 139.5803,18.1979 C139.1313,16.7729 139.9843,16.0679 141.0873,16.0479 C146.5303,15.9499 151.9763,15.9759 157.4203,16.0149 C158.6513,16.0229 159.2333,16.9899 159.5723,18.0199 C160.3813,20.4869 161.0743,22.9929 161.9273,25.4439 C162.3223,26.5809 161.7223,27.3549 161.2633,28.1929 C160.7483,29.1329 160.7093,29.7549 162.0263,29.5829 C163.1153,29.4409 163.3913,30.1119 163.6433,30.9289 C164.6283,34.1179 165.6473,37.2969 166.6243,40.4879 C167.0773,41.9699 166.4483,42.7939 164.8113,42.8179 C162.2133,42.8549 159.6143,42.8279 157.0153,42.8279 Z M152.1063,26.4539 C152.9033,26.4429 153.4723,26.3619 153.1443,25.4029 C152.6863,24.0629 152.3163,22.6919 151.8393,21.3599 C151.4633,20.3109 150.5113,20.5359 149.7903,20.7369 C148.9123,20.9839 149.5303,21.6629 149.6543,22.1159 C149.9613,23.2429 150.3983,24.3359 150.6913,25.4659 C150.9123,26.3209 151.4653,26.4929 152.1063,26.4539 Z M155.7693,38.2309 C156.3183,38.1569 157.1633,38.3749 156.8453,37.3159 C156.2423,35.3119 155.6373,33.3079 154.9493,31.3329 C154.6173,30.3789 153.6933,30.6319 153.0333,30.7989 C152.1983,31.0099 152.6553,31.7039 152.7973,32.1769 C153.2903,33.8269 153.8583,35.4549 154.3433,37.1079 C154.5633,37.8579 154.9113,38.3249 155.7693,38.2309 Z M179.4958,42.8273 C177.0218,42.8273 174.5438,42.7483 172.0748,42.8563 C170.4808,42.9253 169.6268,42.1613 169.1988,40.8063 C166.8338,33.3233 164.4908,25.8333 162.1668,18.3373 C161.7448,16.9733 162.4088,16.0273 163.8878,16.0143 C169.2058,15.9673 174.5258,15.9783 179.8448,16.0103 C181.1488,16.0183 181.8418,16.9843 182.1858,18.0663 C184.5818,25.5983 186.9388,33.1413 189.2708,40.6933 C189.6508,41.9203 188.8088,42.7983 187.2878,42.8173 C184.6908,42.8513 182.0928,42.8273 179.4958,42.8273 Z M178.3218,38.2013 C179.5888,38.3863 179.5048,37.7403 179.1938,36.7723 C177.8548,32.6063 176.5718,28.4213 175.2658,24.2453 C174.9708,23.3033 174.6608,22.3673 174.3648,21.4263 C174.0528,20.4343 173.2398,20.5993 172.5258,20.6813 C171.6148,20.7853 171.9208,21.4353 172.0798,21.9463 C173.6598,27.0053 175.2568,32.0593 176.8348,37.1193 C177.0608,37.8443 177.4028,38.3523 178.3218,38.2013 Z M87.7072,15.9297 C90.1812,15.9297 92.6552,15.9407 95.1292,15.9267 C97.1542,15.9147 97.9282,16.8977 97.3362,18.8117 C96.3482,22.0027 95.3532,25.1917 94.3362,28.3737 C93.7722,30.1357 92.7122,31.3047 90.6792,31.0057 C88.6992,30.7147 87.6572,31.4037 87.2072,33.4697 C86.6832,35.8777 85.7622,38.1977 85.0382,40.5637 C84.5682,42.1017 83.7012,42.9827 81.9522,42.8487 C80.5972,42.7447 79.2282,42.8567 77.8672,42.8197 C76.1332,42.7717 75.5602,41.9837 76.0592,40.3317 C76.8482,37.7267 77.6312,35.1197 78.4992,32.5407 C78.8752,31.4207 78.7172,30.9007 77.4322,31.0067 C76.8172,31.0587 76.1752,31.1067 75.5802,30.9857 C74.4162,30.7487 73.6822,30.1847 74.1352,28.7817 C75.2752,25.2507 76.3522,21.6997 77.4672,18.1607 C77.9252,16.7087 78.8282,15.9207 80.4642,15.9717 C82.8762,16.0467 85.2922,15.9917 87.7072,15.9917 L87.7072,15.9297 Z M185.0397,15.1582 C185.1127,12.1982 187.5037,9.9152 190.4387,10.0022 C193.3607,10.0892 195.6397,12.4872 195.6027,15.4382 C195.5677,18.3372 193.1337,20.6312 190.1617,20.5662 C187.1947,20.5002 184.9657,18.1472 185.0397,15.1582 Z M193.0757,15.3962 C193.0777,14.9822 192.9787,14.6202 192.6227,14.6282 C191.4917,14.6522 190.8867,14.2512 190.9947,13.0192 C191.0237,12.6932 190.7007,12.5082 190.3487,12.5082 C190.0177,12.5082 189.6247,12.6192 189.6307,12.9422 C189.6537,14.1882 189.0117,14.6062 187.8637,14.6922 C187.4727,14.7212 187.4347,15.5272 187.6347,15.5842 C188.8677,15.9352 189.7067,16.5582 189.8297,17.9262 C189.8347,17.9872 190.2047,18.1122 190.3287,18.0522 C191.3767,17.5382 190.9327,15.3412 192.8727,15.7842 C192.9147,15.7942 193.0277,15.4902 193.0757,15.3962 Z" id="Combined-Shape"/>
            </g>
        </g>
    </g>
</svg>