<?xml version="1.0" encoding="UTF-8" standalone="no"?>
<!-- Created with Inkscape (http://www.inkscape.org/) -->

<svg
   xmlns:dc="http://purl.org/dc/elements/1.1/"
   xmlns:cc="http://creativecommons.org/ns#"
   xmlns:rdf="http://www.w3.org/1999/02/22-rdf-syntax-ns#"
   xmlns:svg="http://www.w3.org/2000/svg"
   xmlns="http://www.w3.org/2000/svg"
   xmlns:sodipodi="http://sodipodi.sourceforge.net/DTD/sodipodi-0.dtd"
   xmlns:inkscape="http://www.inkscape.org/namespaces/inkscape"
   width="268"
   height="268"
   viewBox="0 0 268 268"
   id="svg2"
   version="1.1"
   inkscape:version="0.91 r13725"
   sodipodi:docname="producto-item.svg">
  <defs
     id="defs4" />
  <sodipodi:namedview
     id="base"
     pagecolor="#ffffff"
     bordercolor="#666666"
     borderopacity="1.0"
     inkscape:pageopacity="0.0"
     inkscape:pageshadow="2"
     inkscape:zoom="2.0368897"
     inkscape:cx="123.50301"
     inkscape:cy="127.96064"
     inkscape:document-units="px"
     inkscape:current-layer="layer1"
     showgrid="false"
     units="px"
     inkscape:window-width="1920"
     inkscape:window-height="1012"
     inkscape:window-x="-8"
     inkscape:window-y="-8"
     inkscape:window-maximized="1" />
  <metadata
     id="metadata7">
    <rdf:RDF>
      <cc:Work
         rdf:about="">
        <dc:format>image/svg+xml</dc:format>
        <dc:type
           rdf:resource="http://purl.org/dc/dcmitype/StillImage" />
        <dc:title></dc:title>
      </cc:Work>
    </rdf:RDF>
  </metadata>
  <g
     inkscape:label="Capa 1"
     inkscape:groupmode="layer"
     id="layer1"
     transform="translate(0,-784.36216)">
    <g
       id="g4167">
      <rect
         ry="0.41726363"
         y="784.36206"
         x="-3.8295212e-008"
         height="268"
         width="268"
         id="rect4136"
         style="opacity:1;fill:#ececec;fill-opacity:1;stroke:none;stroke-width:1;stroke-linecap:round;stroke-linejoin:round;stroke-miterlimit:4;stroke-dasharray:none;stroke-dashoffset:0;stroke-opacity:1" />
      <g
         transform="translate(-3.8461391,2.1838257)"
         id="g4163">
        <path
           style="fill:#a61493;fill-rule:evenodd;stroke:none;stroke-width:1"
           inkscape:connector-curvature="0"
           d="m 166.9718,917.61874 c -2.07064,-6.56754 -4.11949,-13.14129 -6.17146,-19.71399 -3.05565,-9.78495 -6.12893,-19.56366 -9.13482,-29.3631 -0.32661,-1.06591 -0.79215,-1.3946 -1.86739,-1.34482 -1.96279,0.0913 -3.93388,0.0736 -5.89875,0.0164 -0.7932,-0.0239 -1.13226,0.22812 -1.36038,0.9871 -1.16751,3.88307 -2.4076,7.74541 -3.58859,11.62537 -0.20323,0.66567 -0.49251,0.94149 -1.2287,0.93941 -0.72269,-0.001 -0.9477,-0.30795 -1.13744,-0.92696 -1.20381,-3.93803 -2.45738,-7.86051 -3.66326,-11.7975 -0.18353,-0.5993 -0.42927,-0.84193 -1.097,-0.82534 -2.12248,0.0497 -4.24806,0.0727 -6.36845,-0.007 -0.92904,-0.0342 -1.26187,0.30172 -1.52523,1.15092 -4.96661,16.00822 -9.93218,32.01851 -15.0118,47.99147 -0.55887,1.75854 -0.37016,2.86591 1.04931,3.96707 0.62213,0.48318 1.14886,0.80461 1.9659,0.79736 4.30924,-0.0394 8.61846,-0.0478 12.92666,0.007 0.86266,0.0115 1.17684,-0.28409 1.4039,-1.0607 0.79944,-2.72385 1.70567,-5.41662 2.48954,-8.14461 0.23329,-0.81187 0.64493,-0.97985 1.39769,-0.96533 0.71544,0.0131 1.181,0.0643 1.42466,0.92074 0.77662,2.73007 1.71083,5.41454 2.49056,8.14358 0.25715,0.89793 0.67812,1.14367 1.56153,1.10218 1.55737,-0.0726 3.12201,-0.0497 4.68249,-0.007 0.61487,0.0177 0.85439,-0.20012 1.02755,-0.77766 0.84296,-2.80888 1.7606,-5.59598 2.59631,-8.40589 0.21256,-0.7113 0.50186,-1.0348 1.28884,-0.97777 0.70922,0.0498 1.26393,-0.003 1.52626,0.92385 0.77144,2.73007 1.69735,5.41765 2.49263,8.14253 0.23744,0.81601 0.55991,1.14159 1.46406,1.10737 2.15151,-0.082 4.3082,-0.027 6.46281,-0.027 1.59263,0 3.19978,-0.13795 4.77375,0.0352 1.98974,0.21878 3.46107,-0.39297 4.68561,-1.95761 0.42408,-0.54124 0.54227,-0.92488 0.34321,-1.55426 l 0,0 z m 15.0574,-21.63843 c 0,24.40167 -19.78139,44.18306 -44.18306,44.18306 -24.40168,0 -44.18306,-19.78139 -44.18306,-44.18306 0,-24.40167 19.78138,-44.18306 44.18306,-44.18306 9.49046,0 18.28104,2.99344 25.48106,8.0855 -2.67306,1.94309 -4.41188,5.09311 -4.41188,8.6506 0,5.90394 4.78619,10.69013 10.69011,10.69013 3.0007,0 5.71109,-1.23906 7.65313,-3.22985 3.04943,6.00138 4.77064,12.79288 4.77064,19.98668 l 0,0 z m -7.60855,-26.19546 -3.56371,0 0,3.56372 -2.50405,0 0,-3.56372 -3.56267,0 0,-2.50404 3.56267,0 0,-3.56268 2.50405,0 0,3.56268 3.56371,0 0,2.50404 z"
           id="Fill-1" />
        <path
           style="fill:#a61493;fill-rule:evenodd;stroke:none;stroke-width:1"
           inkscape:connector-curvature="0"
           d="m 110.4943,964.09991 c 0.763,0.07 1.3,-0.146 1.522,-0.982 0.285,-1.072 0.737,-2.105 0.964,-3.186 0.105,-0.501 0.997,-1.338 -0.264,-1.599 -0.884,-0.183 -1.718,-0.104 -2.017,1.044 -0.311,1.192 -0.684,2.372 -1.101,3.531 -0.336,0.933 -0.025,1.267 0.896,1.192 m 0.679,16.384 c -4.021,0.162 -4.766,-0.206 -3.283,-4.308 0.693,-1.916 1.271,-3.876 1.831,-5.835 0.15,-0.527 0.928,-1.34 -0.275,-1.617 -0.89,-0.206 -1.679,-0.097 -2.009,1.04 -0.705,2.432 -1.512,4.835 -2.258,7.256 -1.058,3.436 -1.085,3.464 -4.598,3.464 -2.658998,0 -5.318998,0.019 -7.977998,-0.006 -1.96,-0.019 -2.496,-0.785 -1.927,-2.678 0.534,-1.776 1.115,-3.538 1.607,-5.325 0.268,-0.969 0.718,-1.357 1.804,-1.356 4.145,0.004 4.156,-0.041 5.419,-4.007 1.162998,-3.65 2.349998,-7.293 3.425998,-10.968 0.535,-1.825 1.546,-2.573 3.485,-2.531 4.76,0.104 9.523,0.024 14.285,0.038 2.31,0.007 2.848,0.773 2.155,2.976 -2.075,6.601 -4.187,13.192 -6.211,19.809 -1.457,4.759 -1.698,4.039 -5.473,4.048 z m 31.492,-0.002 c -3.705,0.002 -3.697,-10e-4 -4.933,-3.63 -0.188,-0.552 -0.182,-1.354 -0.983,-1.406 -0.966,-0.063 -0.89,0.871 -1.135,1.445 -0.241,0.566 -0.404,1.17 -0.553,1.769 -0.285,1.149 -0.639,1.917 -2.177,1.899 -1.498,-0.018 -1.939,-0.67 -2.174,-1.886 -0.094,-0.481 -0.274,-0.953 -0.466,-1.407 -0.292,-0.688 -0.146,-1.845 -1.226,-1.799 -1.036,0.044 -0.919,1.191 -1.154,1.892 -1.299,3.872 -0.452,3.019 -4.219,3.12 -1.113,0.03 -2.23,0.04 -3.343,-0.004 -1.593,-0.064 -2.191,-0.881 -1.723,-2.387 2.384,-7.68 4.837,-15.339 7.144,-23.042 0.5,-1.67 1.607,-1.322 2.737,-1.414 1.206,-0.099 1.981,0.181 2.279,1.52 0.321,1.444 0.834,2.847 1.309,4.252 0.145,0.428 0.191,1.061 0.892,0.991 0.536,-0.054 0.633,-0.558 0.761,-0.953 0.495,-1.53 1.03,-3.054 1.41,-4.615 0.373,-1.53 1.518,-1.143 2.508,-1.174 0.974,-0.029 1.902,-0.181 2.32,1.189 2.378,7.81 4.828,15.599 7.288,23.384 0.487,1.542 -0.401,2.051 -1.594,2.226 -0.97,0.141 -1.977,0.028 -2.968,0.03 z m 17.3947,0.002 c -2.475,0 -4.953,-0.073 -7.423,0.026 -1.564,0.063 -2.465,-0.61 -2.905,-2.008 -2.376,-7.547 -4.728,-15.102 -7.107,-22.648 -0.449,-1.425 0.404,-2.13 1.507,-2.15 5.443,-0.098 10.889,-0.072 16.333,-0.033 1.231,0.008 1.813,0.975 2.152,2.005 0.809,2.467 1.502,4.973 2.355,7.424 0.395,1.137 -0.205,1.911 -0.664,2.749 -0.515,0.94 -0.554,1.562 0.763,1.39 1.089,-0.142 1.365,0.529 1.617,1.346 0.985,3.189 2.004,6.368 2.981,9.559 0.453,1.482 -0.176,2.306 -1.813,2.33 -2.598,0.037 -5.197,0.01 -7.796,0.01 z m -4.909,-16.374 c 0.797,-0.011 1.366,-0.092 1.038,-1.051 -0.458,-1.34 -0.828,-2.711 -1.305,-4.043 -0.376,-1.049 -1.328,-0.824 -2.049,-0.623 -0.878,0.247 -0.26,0.926 -0.136,1.379 0.307,1.127 0.744,2.22 1.037,3.35 0.221,0.855 0.774,1.027 1.415,0.988 z m 3.663,11.777 c 0.549,-0.074 1.394,0.144 1.076,-0.915 -0.603,-2.004 -1.208,-4.008 -1.896,-5.983 -0.332,-0.954 -1.256,-0.701 -1.916,-0.534 -0.835,0.211 -0.378,0.905 -0.236,1.378 0.493,1.65 1.061,3.278 1.546,4.931 0.22,0.75 0.568,1.217 1.426,1.123 z m 23.7265,4.5964 c -2.474,0 -4.952,-0.079 -7.421,0.029 -1.594,0.069 -2.448,-0.695 -2.876,-2.05 -2.365,-7.483 -4.708,-14.973 -7.032,-22.469 -0.422,-1.364 0.242,-2.31 1.721,-2.323 5.318,-0.047 10.638,-0.036 15.957,-0.004 1.304,0.008 1.997,0.974 2.341,2.056 2.396,7.532 4.753,15.075 7.085,22.627 0.38,1.227 -0.462,2.105 -1.983,2.124 -2.597,0.034 -5.195,0.01 -7.792,0.01 z m -1.174,-4.626 c 1.267,0.185 1.183,-0.461 0.872,-1.429 -1.339,-4.166 -2.622,-8.351 -3.928,-12.527 -0.295,-0.942 -0.605,-1.878 -0.901,-2.819 -0.312,-0.992 -1.125,-0.827 -1.839,-0.745 -0.911,0.104 -0.605,0.754 -0.446,1.265 1.58,5.059 3.177,10.113 4.755,15.173 0.226,0.725 0.568,1.233 1.487,1.082 z m -90.614598,-22.2716 c 2.474,0 4.948,0.011 7.422,-0.003 2.024998,-0.012 2.798998,0.971 2.206998,2.885 -0.987998,3.191 -1.982998,6.38 -2.999998,9.562 -0.564,1.762 -1.624,2.931 -3.657,2.632 -1.98,-0.291 -3.022,0.398 -3.472,2.464 -0.524,2.408 -1.445,4.728 -2.169,7.094 -0.47,1.538 -1.337,2.419 -3.086,2.285 -1.355,-0.104 -2.724,0.008 -4.085,-0.029 -1.734,-0.048 -2.307,-0.836 -1.808,-2.488 0.789,-2.605 1.572,-5.212 2.44,-7.791 0.376,-1.12 0.218,-1.64 -1.067,-1.534 -0.615,0.052 -1.257,0.1 -1.852,-0.021 -1.164,-0.237 -1.898,-0.801 -1.445,-2.204 1.14,-3.531 2.217,-7.082 3.332,-10.621 0.458,-1.452 1.361,-2.24 2.997,-2.189 2.412,0.075 4.828,0.02 7.243,0.02 l 0,-0.062 z m 97.332498,-0.7715 c 0.073,-2.96 2.464,-5.243 5.399,-5.156 2.922,0.087 5.201,2.485 5.164,5.436 -0.035,2.899 -2.469,5.193 -5.441,5.128 -2.967,-0.066 -5.196,-2.419 -5.122,-5.408 z m 8.036,0.238 c 0.002,-0.414 -0.097,-0.776 -0.453,-0.768 -1.131,0.024 -1.736,-0.377 -1.628,-1.609 0.029,-0.326 -0.294,-0.511 -0.646,-0.511 -0.331,0 -0.724,0.111 -0.718,0.434 0.023,1.246 -0.619,1.664 -1.767,1.75 -0.391,0.029 -0.429,0.835 -0.229,0.892 1.233,0.351 2.072,0.974 2.195,2.342 0.005,0.061 0.375,0.186 0.499,0.126 1.048,-0.514 0.604,-2.711 2.544,-2.268 0.042,0.01 0.155,-0.294 0.203,-0.388 z"
           id="Combined-Shape" />
      </g>
    </g>
  </g>
</svg>
